<?xml version="1.0" encoding="UTF-8"?>
<svg width="31px" height="30px" viewBox="0 0 31 30" version="1.1" xmlns="http://www.w3.org/2000/svg" xmlns:xlink="http://www.w3.org/1999/xlink">
    <title>Shape</title>
    <g id="Page-1" stroke="none" stroke-width="1" fill="none" fill-rule="evenodd">
        <path d="M15.3333333,0 C11.2627083,0 10.7508333,0.01875 9.15145833,0.09 C7.55208333,0.165 6.46270833,0.41625 5.50833333,0.7875 C4.50679143,1.16311045 3.59984772,1.75387195 2.85145833,2.518125 C2.08720528,3.26651438 1.49644378,4.1734581 1.12083333,5.175 C0.749583333,6.1275 0.496458333,7.21875 0.423333333,8.8125 C0.352083333,10.415625 0.333333333,10.925625 0.333333333,15.001875 C0.333333333,19.074375 0.352083333,19.584375 0.423333333,21.18375 C0.498333333,22.78125 0.749583333,23.870625 1.12083333,24.825 C1.50520833,25.81125 2.01708333,26.6475 2.85145833,27.481875 C3.68395833,28.31625 4.52020833,28.83 5.50645833,29.2125 C6.46270833,29.58375 7.55020833,29.836875 9.14770833,29.91 C10.7489583,29.98125 11.2589583,30 15.3333333,30 C19.4077083,30 19.9158333,29.98125 21.5170833,29.91 C23.1127083,29.835 24.2058333,29.58375 25.1602083,29.2125 C26.1610793,28.8366468 27.0673614,28.2458994 27.8152083,27.481875 C28.6495833,26.6475 29.1614583,25.81125 29.5458333,24.825 C29.9152083,23.870625 30.1683333,22.78125 30.2433333,21.18375 C30.3145833,19.584375 30.3333333,19.074375 30.3333333,15 C30.3333333,10.925625 30.3145833,10.415625 30.2433333,8.814375 C30.1683333,7.21875 29.9152083,6.1275 29.5458333,5.175 C29.1702229,4.1734581 28.5794614,3.26651438 27.8152083,2.518125 C27.066819,1.75387195 26.1598752,1.16311045 25.1583333,0.7875 C24.2020833,0.41625 23.1108333,0.163125 21.5152083,0.09 C19.9139583,0.01875 19.4058333,0 15.3295833,0 L15.3333333,0 Z M13.9889583,2.70375 L15.3352083,2.70375 C19.3402083,2.70375 19.8145833,2.716875 21.3952083,2.79 C22.8577083,2.855625 23.6527083,3.10125 24.1814583,3.305625 C24.8808333,3.5775 25.3814583,3.90375 25.9064583,4.42875 C26.4314583,4.95375 26.7558333,5.4525 27.0277083,6.15375 C27.2339583,6.680625 27.4777083,7.475625 27.5433333,8.938125 C27.6164583,10.51875 27.6314583,10.993125 27.6314583,14.99625 C27.6314583,18.999375 27.6164583,19.475625 27.5433333,21.05625 C27.4777083,22.51875 27.2320833,23.311875 27.0277083,23.840625 C26.7855197,24.4910659 26.4019109,25.0796075 25.9045833,25.56375 C25.3795833,26.08875 24.8808333,26.413125 24.1795833,26.685 C23.6545833,26.89125 22.8595833,27.135 21.3952083,27.2025 C19.8145833,27.27375 19.3402083,27.290625 15.3352083,27.290625 C11.3302083,27.290625 10.8539583,27.27375 9.27333333,27.2025 C7.81083333,27.135 7.01770833,26.89125 6.48895833,26.685 C5.83802018,26.4436049 5.24883033,26.0606315 4.76395833,25.56375 C4.26572148,25.0792551 3.88144835,24.4900363 3.63895833,23.83875 C3.43458333,23.311875 3.18895833,22.516875 3.12333333,21.054375 C3.05208333,19.47375 3.03708333,18.999375 3.03708333,14.9925 C3.03708333,10.985625 3.05208333,10.515 3.12333333,8.934375 C3.19083333,7.471875 3.43458333,6.676875 3.64083333,6.148125 C3.91270833,5.44875 4.23895833,4.948125 4.76395833,4.423125 C5.28895833,3.898125 5.78770833,3.57375 6.48895833,3.301875 C7.01770833,3.095625 7.81083333,2.851875 9.27333333,2.784375 C10.6570833,2.720625 11.1933333,2.701875 13.9889583,2.7 L13.9889583,2.70375 Z M23.3414583,5.19375 C22.6983803,5.19375 22.1041516,5.53682804 21.7826126,6.09374998 C21.4610735,6.65067193 21.4610735,7.33682807 21.7826126,7.89375002 C22.1041516,8.45067196 22.6983803,8.79375 23.3414583,8.79375 C24.3355709,8.79375 25.1414583,7.98786253 25.1414583,6.99375 C25.1414583,5.99963747 24.3355709,5.19375 23.3414583,5.19375 M15.3352083,7.2975 C12.5543918,7.25411457 9.9660427,8.71281883 8.56295928,11.1141059 C7.15987585,13.5153931 7.15987585,16.4864819 8.56295928,18.8877691 C9.9660427,21.2890562 12.5543918,22.7477604 15.3352083,22.704375 C19.5428429,22.6387288 22.9193967,19.2090841 22.9193967,15.0009375 C22.9193967,10.7927909 19.5428429,7.3631462 15.3352083,7.2975 M15.3352083,9.999375 C17.1217596,9.999375 18.7726011,10.9524887 19.6658767,12.4996875 C20.5591524,14.0468862 20.5591524,15.9531138 19.6658767,17.5003125 C18.7726011,19.0475113 17.1217596,20.000625 15.3352083,20.000625 C12.5734394,20.000625 10.3345833,17.7617689 10.3345833,15 C10.3345833,12.2382311 12.5734394,9.999375 15.3352083,9.999375" id="Shape" fill="#DDE0DF" fill-rule="nonzero"></path>
    </g>
</svg>