<?xml version="1.0" encoding="UTF-8"?>
<svg width="30px" height="30px" viewBox="0 0 30 30" version="1.1" xmlns="http://www.w3.org/2000/svg" xmlns:xlink="http://www.w3.org/1999/xlink">
    <title>Path 2</title>
    <g id="Page-1" stroke="none" stroke-width="1" fill="none" fill-rule="evenodd">
        <path d="M15.0108396,0 C7.79536861,-0.00457289455 1.59905478,5.12874506 0.261458491,12.2190844 C-1.0761378,19.3094237 2.82405192,26.3474159 9.54526593,28.9719524 C9.41401716,27.7851 9.29401829,25.9607596 9.59589045,24.6651593 C9.86963788,23.4933065 11.3546239,17.208426 11.3546239,17.208426 C11.3546239,17.208426 10.9065031,16.310318 10.9065031,14.9828433 C10.9065031,12.8960079 12.1158668,11.3397875 13.6214776,11.3397875 C14.9002156,11.3397875 15.5189598,12.2997693 15.5189598,13.4528724 C15.5189598,14.7390979 14.6995925,16.6628114 14.2758465,18.4459025 C13.9233498,19.9383741 15.0258394,21.1571009 16.4977006,21.1571009 C19.1639256,21.1571009 21.2132813,18.3446544 21.2132813,14.2872315 C21.2132813,10.6966747 18.6314306,8.18609747 14.9470902,8.18609747 C10.6796303,8.18609747 8.1746538,11.3866616 8.1746538,14.6940988 C8.1746538,15.9840743 8.67152413,17.365923 9.29026832,18.1177837 C9.3986563,18.2330715 9.43852481,18.3968156 9.39526733,18.5490255 C9.28089341,19.0215165 9.02777079,20.0414971 8.97902125,20.2496182 C8.91339686,20.523363 8.76152329,20.5814869 8.47652597,20.4502394 C6.60154358,19.5783809 5.43155458,16.839058 5.43155458,14.6378498 C5.43155458,9.90731475 8.87027227,5.56302232 15.3427115,5.56302232 C20.5457876,5.56302232 24.5901246,9.26982687 24.5901246,14.2253577 C24.5901246,19.3946344 21.3295302,23.5551803 16.8070727,23.5551803 C15.286462,23.5551803 13.8577254,22.7658204 13.368355,21.8320881 L12.4346138,25.3982703 C12.095242,26.7013705 11.1802506,28.3344645 10.5690063,29.3300706 C16.202848,31.0719952 22.3346457,29.3512874 26.2396513,24.9325672 C30.1446569,20.513847 31.0982634,14.2170456 28.6767226,8.84023273 C26.2551819,3.46341982 20.9078315,0.004308879 15.0108396,0" id="Path" fill="#DDE0DF" fill-rule="nonzero"></path>
    </g>
</svg>