<?xml version="1.0" encoding="UTF-8"?>
<svg width="32px" height="28px" viewBox="0 0 32 28" version="1.1" xmlns="http://www.w3.org/2000/svg" xmlns:xlink="http://www.w3.org/1999/xlink">
    <title>Artboard</title>
    <g id="Artboard" stroke="none" stroke-width="1" fill="none" fill-rule="evenodd">
        <path d="M5.62959683,5.5424352 C5.71254147,5.63279655 5.76486668,5.69430758 5.82181882,5.75125973 C8.86960905,8.79986648 11.9175354,11.8483371 14.9662102,14.8961274 C15.6026861,15.5324672 16.3244882,15.5313785 16.9628693,14.8931335 C20.0114761,11.8452752 23.0594024,8.79673649 26.1071246,5.74799365 C26.1633282,5.69172194 26.2140885,5.62993873 26.2928825,5.5424352 L5.62959683,5.5424352 Z M4.63079096,6.59962213 C4.59758588,6.62588679 4.56431277,6.65215146 4.53103965,6.67841613 C4.5270251,6.76728053 4.51954035,6.85621297 4.51954035,6.94514541 C4.51896677,12.547753 4.51896677,15.4668055 4.51920014,21.0694812 C4.51926818,21.9591458 5.04177178,22.4793359 5.93844484,22.479404 C12.6206936,22.4800844 19.3029424,22.4800844 25.9851912,22.479472 C26.8813199,22.4793359 27.4050483,21.9583973 27.4051163,21.0697534 C27.4054027,15.4671458 27.4054027,12.5480252 27.4048441,6.94541758 C27.4048441,6.85668927 27.3970192,6.768029 27.3929366,6.67930069 C27.3601398,6.65392059 27.327479,6.62847244 27.2947503,6.60302429 C27.2443303,6.69005152 27.2099004,6.79300085 27.1412449,6.86179251 C24.1250947,9.88345416 21.1086724,12.9048436 18.0824518,15.9162988 C17.8172195,16.1801703 17.5110252,16.4285279 17.1791786,16.5949615 C16.0617054,17.1555693 14.8265856,16.9073478 13.8903794,15.971822 C10.8525235,12.9360755 7.8161645,9.89889996 4.78211899,6.85934295 C4.71366755,6.79068738 4.68046248,6.68692153 4.63079096,6.59962213 L4.63079096,6.59962213 Z M3,21.5775596 L3,6.43699892 C3.01000235,6.42386659 3.02578837,6.41202707 3.02925857,6.39732974 C3.41356646,4.78409393 4.39801523,4.00649644 6.05779258,4.00649644 C11.3874109,4.0064284 16.7170973,4.0064284 22.0467157,4.00649644 C23.4128867,4.00649644 24.7793299,3.98832891 26.1450246,4.01275641 C27.3127137,4.03357763 28.1620287,4.5992206 28.6680658,5.65232494 C28.7861888,5.898233 28.8406914,6.17469245 28.9244525,6.43699892 L28.9244525,21.5775596 C28.8459307,21.8236038 28.7935375,22.0818957 28.6846003,22.3136508 C28.1488283,23.4541906 27.2288845,23.9978556 25.9807003,23.9981959 C19.428346,23.9996928 12.8759236,23.9989443 6.32356925,23.9988763 C6.14652089,23.9988763 5.9692684,24.0022784 5.79235612,23.9972432 C4.54049765,23.9615886 3.5165158,23.2129095 3.13805962,22.0560393 C3.08648288,21.8983832 3.04572502,21.7371209 3,21.5775596 L3,21.5775596 Z" id="Fill-3" fill="#3C7630"></path>
    </g>
</svg>