<?xml version="1.0" encoding="UTF-8"?>
<svg width="32px" height="23px" viewBox="0 0 32 23" version="1.1" xmlns="http://www.w3.org/2000/svg" xmlns:xlink="http://www.w3.org/1999/xlink">
    <title>Artboard-2</title>
    <g id="Page-1" stroke="none" stroke-width="1" fill="none" fill-rule="evenodd">
        <g id="Artboard-2" fill="#F6F5F2" fill-rule="nonzero">
            <path d="M0,3.00012745 L15.3647199,13.2795095 C15.5104292,13.3769038 15.6775754,13.4257596 15.8447217,13.4257596 C16.0034796,13.4257596 16.1619268,13.3819798 16.3026653,13.2937856 L16.3026653,13.2937856 L32.0001243,3.46933324 L32.0001243,20.7744296 C32.0001243,22.0037552 31.0242758,23.0002226 29.8206983,23.0002226 L29.8206983,23.0002226 L2.17973662,23.0002226 C0.97584845,23.0002226 0,22.0037552 0,20.7744296 L0,20.7744296 L0,3.00012745 Z M29.9071287,0 C30.9627054,0 31.8357957,0.81186142 32.0001243,1.87448223 L32.0001243,1.87448223 L16.3087102,12.0001275 L1.00012427,1.44019373 C1.30487363,0.59901863 2.07627988,0 2.98235691,0 L2.98235691,0 L29.9071287,0 Z" id="Combined-Shape"></path>
        </g>
    </g>
</svg>