<?xml version="1.0" encoding="UTF-8"?>
<svg width="32px" height="28px" viewBox="0 0 32 28" version="1.1" xmlns="http://www.w3.org/2000/svg" xmlns:xlink="http://www.w3.org/1999/xlink">
    <title>Artboard Copy 17</title>
    <g id="Artboard-Copy-17" stroke="none" stroke-width="1" fill="none" fill-rule="evenodd">
        <g id="Group-3" transform="translate(15.5, 14) scale(-1, 1) translate(-15.5, -14)translate(6, 2)" fill="#3C7630">
            <path d="M12.6569055,8.80140309 C12.6569055,7.43882411 12.659471,6.1037785 12.6535819,4.76873289 C12.6528822,4.60705506 12.6183635,4.44273543 12.5801715,4.28440387 C12.2112535,2.75615501 10.7444445,1.71792971 9.19979362,1.8872981 C7.5260477,2.07075607 6.33970266,3.362124 6.3331138,5.01600487 C6.3283325,6.21074183 6.33188932,7.4055375 6.33264733,8.60033316 C6.33270564,8.66737604 6.34127699,8.73436021 6.34588336,8.80140309 L12.6569055,8.80140309 Z M9.50474715,10.687132 C7.32459178,10.687132 5.14449473,10.687132 2.96433936,10.6872922 C2.22067256,10.6874096 1.86353291,11.0445803 1.8634746,11.7888619 C1.86321221,14.8665527 1.86321221,17.9442435 1.8634746,21.0218755 C1.86353291,21.7665681 2.22049764,22.1242671 2.96346473,22.1242671 C7.32371716,22.1244658 11.6839696,22.1244658 16.044222,22.1242671 C16.7721455,22.1242084 17.1333668,21.7629283 17.1334834,21.0344974 C17.1337895,17.9489987 17.1337895,14.8634999 17.1334834,11.7779425 C17.1333668,11.0491594 16.7722621,10.6875271 16.0450966,10.6873509 C13.8649996,10.68694 11.6848442,10.687132 9.50474715,10.687132 L9.50474715,10.687132 Z M9.96404332,0 C10.3838063,0.102560339 10.8162223,0.169250978 11.2212915,0.313669086 C13.2331685,1.03088698 14.5141483,2.86799099 14.5248187,5.02516309 C14.5305913,6.18907911 14.5258683,7.35299513 14.5258683,8.51691115 C14.5259266,8.60268142 14.5258683,8.68845169 14.5258683,8.8122638 C14.614264,8.8122638 14.6954294,8.81079613 14.7765949,8.81249862 C15.3962978,8.82547277 16.022298,8.78754834 16.6344791,8.86316237 C17.94403,9.02507503 18.9548664,10.1828856 18.9892685,11.5114735 C19.0088601,12.2687292 18.9956241,13.0268069 18.9957407,13.7845323 C18.9960906,16.2373506 18.9994725,18.6901689 18.9943996,21.1429871 C18.9916008,22.5120825 18.1192471,23.6229278 16.8115038,23.925971 C16.5872492,23.9779263 16.3506916,23.9961841 16.1198481,23.9963602 C11.7051939,24.0003522 7.29059792,24.0011154 2.87594365,23.9984149 C1.2129265,23.9974169 0.00314143871,22.773855 0.00180034287,21.0949065 C-0.000648614752,17.9703092 -0.000531997722,14.8457119 0.00174203435,11.7211145 C0.00296651316,10.0303073 1.21333466,8.81631455 2.89483561,8.81243992 C3.4124403,8.81126579 3.93004498,8.8122638 4.46969029,8.8122638 L4.46969029,8.53739974 C4.46969029,7.39690763 4.46893227,6.25641552 4.46986521,5.11592342 C4.47173108,2.82296307 5.77113633,0.985682941 7.92721028,0.254610299 C8.28376685,0.133733516 8.66376344,0.0831284719 9.03291465,0 L9.96404332,0 Z" id="Fill-1"></path>
            <path d="M12,14.7669477 C11.9744959,15.2294264 11.7328993,15.6633169 11.2477419,15.9876385 C11.1187143,16.0738585 11.0771952,16.1591674 11.0786853,16.2914018 C11.0855261,16.8967642 11.0908769,17.5024113 11.0765856,18.1076599 C11.0660196,18.5548194 10.6991206,18.9017496 10.1880899,18.9847235 C9.71492095,19.061547 9.20869923,18.8428648 9.02142293,18.4582347 C8.95531744,18.3225265 8.9259899,18.1658043 8.92321293,18.0180229 C8.9122405,17.4430141 8.91461109,16.8677204 8.92172285,16.2925977 C8.92334839,16.1614453 8.88514809,16.0746558 8.75523997,15.9876955 C8.0208324,15.4960022 7.79433983,14.6492921 8.1984909,13.9634615 C8.62736379,13.2357168 9.55974916,12.8598568 10.4691737,13.0481854 C11.3743312,13.2355459 12.0055844,13.9205793 12,14.7669477" id="Fill-4" transform="translate(10, 16) scale(-1, 1) translate(-10, -16)"></path>
        </g>
    </g>
</svg>