<?xml version="1.0" encoding="UTF-8"?>
<svg width="339px" height="315px" viewBox="0 0 339 315" version="1.1" xmlns="http://www.w3.org/2000/svg" xmlns:xlink="http://www.w3.org/1999/xlink">
    <title>Group 10</title>
    <defs>
        <polygon id="path-1" points="-2.53502731e-15 0 338.664627 0 338.664627 314.372 -2.53502731e-15 314.372"></polygon>
    </defs>
    <g id="Page-1" stroke="none" stroke-width="1" fill="none" fill-rule="evenodd">
        <g id="Group-10" transform="translate(-0, 0)">
            <g id="Group-3">
                <mask id="mask-2" fill="white">
                    <use xlink:href="#path-1"></use>
                </mask>
                <g id="Clip-2"></g>
                <path d="M169.262877,288.6976 C170.140877,287.6606 170.717877,287.0376 171.229877,286.3646 C179.610877,275.3446 188.050877,264.3676 196.335877,253.2756 C202.217877,245.4016 209.862877,241.5076 219.745877,241.6176 C233.717877,241.7746 247.692877,241.6936 261.665877,241.6496 C294.402877,241.5446 319.062877,217.7466 319.413877,185.0936 C319.805877,148.6596 319.787877,112.2156 319.417877,75.7816 C319.088877,43.3586 294.767877,19.4066 262.454877,19.3356 C200.323877,19.1966 138.191877,19.1876 76.0608773,19.3416 C44.1348773,19.4206 19.7108773,43.2606 19.3178773,75.2196 C18.8658773,112.0256 18.8898773,148.8466 19.3148773,185.6536 C19.6588773,215.4546 40.8838773,238.6006 70.5188773,241.0916 C86.0098773,242.3946 101.686877,241.8386 117.268877,241.5566 C128.484877,241.3536 136.875877,245.5396 143.429877,254.5876 C151.691877,265.9946 160.418877,277.0646 169.262877,288.6976 M169.385877,0.0526 C200.577877,0.0526 231.770877,-0.0394 262.962877,0.0766 C298.579877,0.2076 328.585877,24.0336 336.638877,58.6996 C337.951877,64.3536 338.503877,70.3016 338.529877,76.1176 C338.696877,112.3066 338.697877,148.4976 338.591877,184.6876 C338.476877,223.8666 310.851877,255.1946 272.025877,260.2896 C268.454877,260.7586 264.804877,260.7306 261.190877,260.7436 C247.590877,260.7936 233.990877,260.8246 220.391877,260.7256 C216.572877,260.6976 213.816877,262.0166 211.483877,265.1166 C200.534877,279.6696 189.439877,294.1116 178.382877,308.5836 C172.494877,316.2906 166.037877,316.3026 160.196877,308.6146 C149.329877,294.3126 138.399877,280.0576 127.678877,265.6466 C125.026877,262.0806 121.974877,260.5866 117.554877,260.6346 C102.958877,260.7936 88.3548773,260.9056 73.7628773,260.6016 C32.8518773,259.7506 0.344877337,226.7426 0.137877337,185.7406 C-0.049122663,148.9276 -0.041122663,112.1116 0.132877337,75.2986 C0.329877337,33.5556 33.6238773,0.3196 75.4358773,0.0876 C106.751877,-0.0874 138.068877,0.0526 169.385877,0.0526" id="Fill-1" fill="#FFFFFF" mask="url(#mask-2)"></path>
            </g>
            <path d="M169.417077,110.557861 C180.445077,110.517 189.442077,119.548 189.355077,130.572 C189.270077,141.349 180.283077,150.308 169.484077,150.381 C158.505077,150.455 149.426077,141.457 149.385943,130.463 C149.346077,119.437 158.239077,110.599 169.417077,110.557861" id="Fill-4" fill="#FFFFFF"></path>
            <path d="M236.106077,110.5593 C247.023077,110.6293 255.681077,119.4093 255.705121,130.4363 C255.728077,141.4653 246.735077,150.4333 235.704077,150.380534 C224.740077,150.3273 215.740077,141.1933 215.849077,130.2283 C215.958077,119.1773 224.908077,110.4883 236.106077,110.5593" id="Fill-6" fill="#FFFFFF"></path>
            <path d="M83.03785,130.383 C83.0558773,119.212 91.7898773,110.559 103.051877,110.550996 C114.040877,110.544 123.000877,119.633 122.878877,130.663 C122.758877,141.45 113.767877,150.345 102.950877,150.380109 C91.8928773,150.416 83.0198773,141.505 83.03785,130.383" id="Fill-8" fill="#FFFFFF"></path>
        </g>
    </g>
</svg>