<?xml version="1.0" encoding="UTF-8"?>
<svg width="30px" height="30px" viewBox="0 0 30 30" version="1.1" xmlns="http://www.w3.org/2000/svg" xmlns:xlink="http://www.w3.org/1999/xlink">
    <title>Path</title>
    <g id="Page-1" stroke="none" stroke-width="1" fill="none" fill-rule="evenodd">
        <path d="M30,15.0918635 C30,6.75665542 23.2845894,0 15.0018748,0 C6.71541057,0.00187476565 0,6.75665542 0,15.0937383 C0,22.6246719 5.4855643,28.8676415 12.6546682,30 L12.6546682,19.4544432 L8.84889389,19.4544432 L8.84889389,15.0937383 L12.6584177,15.0937383 L12.6584177,11.7660292 C12.6584177,7.98462692 14.8987627,5.89613798 18.3239595,5.89613798 C19.9662542,5.89613798 21.6816648,6.19047619 21.6816648,6.19047619 L21.6816648,9.90251219 L19.7900262,9.90251219 C17.928384,9.90251219 17.3472066,11.0667417 17.3472066,12.2609674 L17.3472066,15.0918635 L21.5054368,15.0918635 L20.8417698,19.4525684 L17.3453318,19.4525684 L17.3453318,29.9981252 C24.5144357,28.8657668 30,22.6227972 30,15.0918635" id="Path" fill="#DDE0DF" fill-rule="nonzero"></path>
    </g>
</svg>