<?xml version="1.0" encoding="UTF-8"?>
<svg width="31px" height="30px" viewBox="0 0 31 30" version="1.1" xmlns="http://www.w3.org/2000/svg" xmlns:xlink="http://www.w3.org/1999/xlink">
    <title>Shape 2</title>
    <g id="Page-1" stroke="none" stroke-width="1" fill="none" fill-rule="evenodd">
        <path d="M0.833333333,2.14875 C0.833333333,0.961875 1.81958333,0 3.03645833,0 L28.6302083,0 C29.8470833,0 30.8333333,0.961875 30.8333333,2.14875 L30.8333333,27.85125 C30.8333333,29.038125 29.8470833,30 28.6302083,30 L3.03645833,30 C1.81958333,30 0.833333333,29.038125 0.833333333,27.85125 L0.833333333,2.14875 Z M10.1014583,25.11375 L10.1014583,11.566875 L5.59958333,11.566875 L5.59958333,25.11375 L10.1014583,25.11375 Z M7.85145833,9.71625 C9.42083333,9.71625 10.3977083,8.6775 10.3977083,7.37625 C10.3695833,6.046875 9.42270833,5.03625 7.88145833,5.03625 C6.34020833,5.03625 5.33333333,6.04875 5.33333333,7.37625 C5.33333333,8.6775 6.31020833,9.71625 7.82145833,9.71625 L7.85145833,9.71625 Z M17.0539583,25.11375 L17.0539583,17.548125 C17.0539583,17.143125 17.0839583,16.738125 17.2039583,16.449375 C17.5283333,15.64125 18.2689583,14.803125 19.5139583,14.803125 C21.1433333,14.803125 21.7939583,16.044375 21.7939583,17.866875 L21.7939583,25.11375 L26.2958333,25.11375 L26.2958333,17.34375 C26.2958333,13.18125 24.0758333,11.24625 21.1133333,11.24625 C18.7245833,11.24625 17.6539583,12.55875 17.0539583,13.483125 L17.0539583,13.53 L17.0239583,13.53 L17.0539583,13.483125 L17.0539583,11.566875 L12.5539583,11.566875 C12.6102083,12.838125 12.5539583,25.11375 12.5539583,25.11375 L17.0539583,25.11375 Z" id="Shape" fill="#DDE0DF" fill-rule="nonzero"></path>
    </g>
</svg>