<?xml version="1.0" encoding="UTF-8"?>
<svg width="226px" height="80px" viewBox="0 0 226 80" version="1.1" xmlns="http://www.w3.org/2000/svg" xmlns:xlink="http://www.w3.org/1999/xlink">
    <title>Logo</title>
    <g id="Page-1" stroke="none" stroke-width="1" fill="none" fill-rule="evenodd">
        <g id="Logo" fill="#F6F5F2">
            <path d="M-1.42108547e-14,2.56646043 C-1.42108547e-14,2.05506697 -1.42108547e-14,1.6326115 -1.42108547e-14,1.12121803 C7.61249141,1.12121803 15.202789,1.12121803 22.8818619,1.12121803 C22.8818619,1.565908 22.8818619,2.03283247 22.8818619,2.52199144 C21.8609447,2.65539843 20.7956398,2.72210192 19.7969164,2.94444691 C17.9548267,3.34466788 16.4234508,4.21181332 15.8686045,6.19068368 C15.7354414,6.65760815 15.6688599,7.14676712 15.6688599,7.63592609 C15.646666,13.1056127 15.6688599,18.5975338 15.6688599,24.0672205 C15.6688599,24.2450964 15.6910537,24.4229724 15.7132476,24.6230829 C24.0137484,24.6230829 32.2698615,24.6230829 40.6369439,24.6230829 C40.6591378,24.3117999 40.6813316,24.0227515 40.6813316,23.733703 C40.6813316,18.6197683 40.5925562,13.4835992 40.7035255,8.36966454 C40.7923009,4.30075131 38.4397525,3.14455739 35.6211333,2.74433642 C34.91093,2.63316393 34.2007267,2.61092943 33.4461357,2.54422593 C33.4461357,2.07730147 33.4461357,1.6326115 33.4461357,1.09898353 C41.0586271,1.09898353 48.6489247,1.09898353 56.3058038,1.09898353 C56.3058038,1.5436735 56.3058038,2.01059797 56.3058038,2.49975694 C55.3292743,2.63316393 54.3305509,2.69986742 53.3540214,2.89997791 C50.3800452,3.50030937 49.0928017,5.07895876 49.0928017,8.10285055 C49.0928017,20.4874662 49.1371894,32.8498474 49.0706079,45.234463 C49.048414,48.9031553 50.8905038,50.4373357 54.1308062,50.9042601 C54.8410095,51.0154326 55.5512128,51.0376671 56.3058038,51.1043706 C56.3058038,51.5712951 56.3058038,52.015985 56.3058038,52.549613 C48.6933124,52.549613 41.080821,52.549613 33.4239419,52.549613 C33.4239419,52.0826885 33.4239419,51.6157641 33.4239419,51.1488396 C34.4226652,51.0154326 35.4213886,50.9487291 36.3979181,50.7486186 C39.3497005,50.1482872 40.6591378,48.5251688 40.6591378,45.5235115 C40.6591378,39.9648869 40.6591378,34.4062623 40.6591378,28.8476376 C40.6591378,28.5585892 40.6591378,28.2917752 40.6591378,27.9582577 C32.3364431,27.9582577 24.0581361,27.9582577 15.6910537,27.9582577 C15.6688599,28.2250717 15.646666,28.5363547 15.646666,28.8254031 C15.646666,34.2950898 15.7132476,39.7870109 15.6244722,45.2566975 C15.5578906,49.1032657 17.6885004,50.4373357 20.6402828,50.8820256 C21.37268,50.9931981 22.1050771,51.0154326 22.8818619,51.1043706 C22.8818619,51.5712951 22.8818619,52.0382195 22.8818619,52.549613 C15.2693705,52.549613 7.67907296,52.549613 0.0221938525,52.549613 C0.0221938525,52.104923 0.0221938525,51.6157641 0.0221938525,51.1933086 C1.17627418,51.0154326 2.35254836,50.9042601 3.48443484,50.6152116 C6.01453403,49.9481767 7.21300206,48.3695273 7.21300206,45.7458565 C7.21300206,33.0944268 7.21300206,20.4207627 7.21300206,7.76933308 C7.21300206,4.85661378 5.50407542,3.16679189 2.2415791,2.76657092 C1.53137582,2.67763293 0.79897869,2.63316393 -1.42108547e-14,2.56646043 Z" id="Path"></path>
            <path d="M130.211333,51.1043706 C130.211333,51.6157641 130.211333,52.0826885 130.211333,52.594082 C123.220269,52.594082 116.251399,52.594082 109.215948,52.594082 C109.215948,52.1271575 109.215948,51.6602331 109.215948,51.1933086 C110.259059,51.0599016 111.279976,50.9487291 112.2787,50.7930876 C112.655995,50.7263841 113.033291,50.6152116 113.388392,50.4595702 C114.786605,49.8814732 115.297064,48.8809208 114.919768,47.4356784 C114.764411,46.8575814 114.564667,46.3017189 114.342728,45.768091 C113.011097,42.6552612 111.679466,39.5424314 110.370028,36.4073671 C110.192478,35.9626771 109.948345,35.8070357 109.460081,35.8070357 C102.646568,35.8292702 95.8330551,35.8292702 89.0195424,35.8070357 C88.5756653,35.8070357 88.3315329,35.8959737 88.1539821,36.3406636 C87.0220956,39.0977414 85.8236276,41.8325847 84.6917411,44.5896626 C84.3810272,45.323401 84.1590887,46.1016085 83.9815379,46.8575814 C83.6042424,48.5696378 84.2700579,49.8370042 85.912403,50.4818047 C86.4894432,50.7041496 87.0886772,50.8375566 87.6879112,50.9487291 C88.2871452,51.0599016 88.9085731,51.0821361 89.5743887,51.1488396 C89.5743887,51.6157641 89.5743887,52.0826885 89.5743887,52.6163165 C84.1368948,52.6163165 78.7215948,52.6163165 73.2397132,52.6163165 C73.2397132,52.149392 73.2397132,51.6824676 73.2397132,51.1488396 C76.3468526,50.9264946 78.2777178,48.9031553 79.6315428,46.3684224 C81.2295001,43.3889996 82.5833251,40.2761699 83.9815379,37.1855746 C89.4190317,25.0455384 94.8343317,12.8832677 100.249632,0.743231557 C100.47157,0.231838092 100.693509,-0.0572103878 101.292743,0.00949310768 C101.891977,0.0539621046 102.335854,-0.0127413908 102.690956,0.720997059 C109.593244,15.751518 116.539919,30.7598045 123.464401,45.7903255 C123.708534,46.3239534 123.97486,46.8575814 124.26338,47.3689749 C125.550624,49.5924247 127.414907,51.0154326 130.211333,51.1043706 Z M99.2731022,11.2379148 C96.0771875,18.4418923 92.9700481,25.4679939 89.8407149,32.5163299 C96.2103506,32.5163299 102.469017,32.5163299 108.794265,32.5163299 C105.620544,25.4235249 102.469017,18.4196578 99.2731022,11.2379148 Z" id="Shape"></path>
            <path d="M153.625847,2.47752244 C153.625847,2.07730147 153.625847,1.6326115 153.625847,1.12121803 C161.770991,1.12121803 169.938329,1.12121803 178.12786,1.12121803 C178.12786,1.610377 178.12786,2.05506697 178.12786,2.47752244 C176.751841,2.67763293 175.375822,2.78880542 174.021997,3.1000884 C172.113326,3.54477837 170.604144,4.5453308 170.182461,6.63537365 C170.071492,7.12453262 170.093686,7.65816058 170.093686,8.16955405 C170.093686,18.4641268 170.160267,28.7586996 170.071492,39.0532724 C170.027104,43.9226276 168.27379,48.1916513 164.345478,51.1710741 C160.461554,54.1504969 156.000589,54.4617799 151.473043,52.771958 C149.053913,51.8825781 147.922027,49.9926457 148.032996,47.6580233 C148.099578,46.1460775 149.32024,44.700835 150.873809,44.2783796 C152.471767,43.8336896 154.535795,44.4784901 155.268192,45.7458565 C155.556712,46.2350154 155.578906,46.8575814 155.734263,47.4356784 C155.911814,48.0804788 156.022783,48.7475138 156.311303,49.3478452 C157.15467,51.1488396 159.396249,51.3489501 160.43936,49.6146592 C160.972012,48.7475138 161.238338,47.6802578 161.438083,46.6574709 C161.637828,45.6124495 161.637828,44.5007246 161.637828,43.4334686 C161.660022,31.6714189 161.637828,19.9093692 161.637828,8.14731955 C161.637828,5.30130375 160.461554,3.74488885 157.687322,3.1000884 C156.355691,2.78880542 155.001866,2.67763293 153.625847,2.47752244 Z" id="Path"></path>
            <path d="M226,1.12121803 C226,1.6326115 226,2.07730147 226,2.47752244 C224.601787,2.67763293 223.203575,2.78880542 221.871943,3.1000884 C219.963272,3.54477837 218.45409,4.5675653 218.054601,6.65760815 C217.965825,7.14676712 217.965825,7.68039508 217.965825,8.19178855 C217.965825,18.4641268 218.010213,28.7364651 217.943632,38.9865689 C217.899244,43.8781586 216.145929,48.1694168 212.195424,51.1710741 C208.289306,54.1282624 203.850535,54.4395454 199.322989,52.7497235 C196.970441,51.8825781 195.860748,50.0371147 195.905136,47.7691958 C195.949524,46.2127809 197.125798,44.7230695 198.701561,44.2561451 C200.299519,43.7892206 202.363547,44.4117866 203.118138,45.6569185 C203.406658,46.1460775 203.451046,46.7686434 203.606403,47.3245059 C203.783954,47.9915408 203.894923,48.7030448 204.183443,49.3033762 C205.026809,51.0821361 207.246195,51.2822466 208.267112,49.5924247 C208.821958,48.7030448 209.110478,47.6135543 209.288029,46.5685329 C209.487774,45.5235115 209.487774,44.4117866 209.487774,43.3445306 C209.509968,31.5824809 209.487774,19.8204313 209.487774,8.05838156 C209.487774,5.25683475 208.3115,3.67818536 205.581656,3.0333849 C204.272218,2.72210192 202.8962,2.61092943 201.475793,2.41081894 C201.475793,2.03283247 201.475793,1.565908 201.475793,1.05451454 C209.643131,1.12121803 217.788275,1.12121803 226,1.12121803 Z" id="Path"></path>
            <path d="M123.508789,79.9869841 C120.312874,76.2515884 117.11696,72.5161926 113.876657,68.7363279 C113.854463,68.9142039 113.854463,69.0253764 113.854463,69.1143144 C113.854463,72.0270337 113.854463,74.939753 113.854463,77.8524723 C113.854463,78.6306797 114.12079,79.0086662 114.897574,79.1865422 C115.230482,79.2754802 115.56339,79.2977147 115.940685,79.3421837 C115.940685,79.4311217 115.962879,79.5200597 115.962879,79.6534667 C114.231759,79.6534667 112.545026,79.6534667 110.813906,79.6534667 C110.813906,79.5422942 110.813906,79.4311217 110.813906,79.3421837 C111.169007,79.2754802 111.524109,79.2532457 111.87921,79.1420732 C112.56722,78.9419627 112.900128,78.5195072 112.900128,77.7857688 C112.900128,74.4728285 112.922322,71.1821227 112.900128,67.8691825 C112.900128,67.268851 112.389669,66.9353335 111.923598,66.690754 C111.612884,66.5351126 111.235589,66.4906436 110.836099,66.3794711 C110.836099,66.3350021 110.836099,66.2238296 110.813906,66.1126571 C110.880487,66.0904226 110.902681,66.0681881 110.947069,66.0681881 C112.078955,66.0681881 113.210842,66.0681881 114.342728,66.0681881 C114.475891,66.0681881 114.653442,66.1793606 114.764411,66.2905331 C117.383286,69.3811284 119.979967,72.4494891 122.598841,75.5400844 C122.665423,75.6290224 122.754198,75.7179604 122.887361,75.8513674 C122.887361,75.6734914 122.909555,75.5623189 122.909555,75.4289119 C122.909555,72.9164136 122.909555,70.4261498 122.909555,67.9136515 C122.909555,67.046506 122.576647,66.646285 121.733281,66.4906436 C121.444761,66.4461746 121.156241,66.4239401 120.845527,66.3794711 C120.845527,66.2905331 120.845527,66.1793606 120.845527,66.0459536 C122.554454,66.0459536 124.241186,66.0459536 125.950113,66.0459536 C125.950113,66.1348916 125.972307,66.2460641 125.972307,66.3350021 C125.927919,66.3572366 125.883531,66.3794711 125.861338,66.3794711 C125.506236,66.4239401 125.151134,66.4461746 124.818226,66.5351126 C124.174605,66.7129885 123.886085,67.135444 123.863891,67.8247135 C123.863891,69.2254869 123.863891,70.6262603 123.863891,72.0270337 C123.863891,74.6507045 123.863891,77.2521408 123.863891,79.8758116 C123.708534,79.9869841 123.597565,79.9869841 123.508789,79.9869841 Z" id="Path"></path>
            <path d="M96.8317785,79.9869841 C96.2547383,79.8758116 95.6776981,79.7868736 95.100658,79.6312322 C91.7493862,78.6751487 89.7963272,75.7179604 90.0848473,72.2493787 C90.3733674,68.7140934 93.2585682,66.2015951 96.4322891,65.8680776 C97.7195326,65.7346706 98.9623883,65.8680776 100.18305,66.2015951 C100.58254,66.3127676 101.004223,66.3794711 101.403712,66.4461746 C101.803201,66.5128781 102.069528,66.3572366 102.291466,66.0014846 C102.358048,65.8680776 102.60218,65.8236086 102.824119,65.6902016 C102.8907,67.2466165 102.979476,68.6918589 103.046057,70.1371013 C102.846312,70.1371013 102.690956,70.1371013 102.535599,70.1371013 C102.424629,69.9147563 102.335854,69.6701768 102.224885,69.4255974 C101.15958,67.135444 99.2065207,66.3572366 96.9871354,66.5573471 C95.2782088,66.7129885 94.035353,67.6468375 93.3251498,69.1587834 C92.2598448,71.4489367 92.1932633,73.8057936 93.2141805,76.1181814 C94.19071,78.3638657 96.2103506,79.4533562 98.6516744,79.1643077 C99.2731022,79.0976042 99.8945301,78.9197282 100.515958,78.7418522 C100.937641,78.6084452 101.137386,78.3193967 101.137386,77.8302378 C101.092998,76.6962784 101.137386,75.5623189 101.137386,74.4283595 C101.137386,73.2944001 100.715703,72.8274756 99.5838162,72.7163031 C99.4950408,72.7163031 99.3840715,72.6940686 99.2509084,72.6940686 C99.2509084,72.5828961 99.2287145,72.4939581 99.2065207,72.3605512 C101.04861,72.3605512 102.868506,72.3605512 104.73279,72.3605512 C104.73279,72.4494891 104.73279,72.5606616 104.754984,72.6718341 C104.710596,72.6940686 104.666208,72.7163031 104.644015,72.7163031 C103.600903,72.8274756 103.267996,73.1832276 103.267996,74.228249 C103.267996,75.5400844 103.267996,76.8296854 103.267996,78.1415208 C103.267996,78.4083347 103.17922,78.5195072 102.935088,78.6306797 C101.559069,79.2087767 100.18305,79.7201702 98.6960621,79.8980461 C98.6516744,79.8980461 98.6072867,79.9425151 98.5628989,79.9425151 C97.9636649,79.9869841 97.4088186,79.9869841 96.8317785,79.9869841 Z" id="Path"></path>
            <path d="M60.8777374,79.9869841 C60.7001866,78.7196177 60.5004419,77.4300168 60.3228911,76.1626504 C60.3006972,75.9847744 60.2785034,75.8068984 60.2563095,75.6290224 C60.5892173,75.4956154 60.7445743,75.6067879 60.8555436,75.8958364 C61.1662575,76.7185129 61.6101345,77.4967203 62.2759501,78.0970518 C63.2746735,79.0309007 64.4509477,79.4088872 65.8047727,79.1643077 C67.6246686,78.8307902 68.3570657,77.0297958 67.3139546,75.4956154 C66.8922714,74.8730495 66.3152313,74.450594 65.6938034,74.094842 C64.9392124,73.6723866 64.1624276,73.2721656 63.4078366,72.8052411 C62.897378,72.4939581 62.3869194,72.1382062 61.9430423,71.7157507 C60.8999313,70.7374328 60.633605,69.5145354 61.0552882,68.1804654 C61.4769714,66.8463955 62.4978886,66.1348916 63.8295198,65.8903121 C64.7616616,65.7124361 65.6938034,65.8236086 66.5815575,66.1348916 C66.958853,66.2682986 67.3361485,66.3794711 67.713444,66.4684091 C68.0463518,66.5573471 68.312678,66.4239401 68.4458411,66.1126571 C68.5568104,65.8236086 68.7343612,65.7569051 69.0450751,65.8458431 C69.1338505,66.5573471 69.2004321,67.268851 69.2892075,67.980355 C69.3779829,68.6918589 69.4445645,69.4255974 69.511146,70.1593358 C69.1560444,70.2705083 68.9784936,70.2038048 68.8453305,69.8258183 C68.5568104,68.9586729 68.1351272,68.1804654 67.4471177,67.5578995 C66.5593636,66.735223 65.5162526,66.4017056 64.3177845,66.6240505 C62.7864087,66.9353335 62.2093686,68.6251554 63.2746735,69.7813493 C63.6963567,70.2260393 64.2290091,70.5817913 64.7616616,70.9153088 C65.6494157,71.4711712 66.5593636,71.9603302 67.4471177,72.5384271 C68.0019641,72.8941791 68.5346165,73.2944001 69.0228813,73.7613246 C70.6652264,75.3177395 70.0881862,77.8524723 68.6899735,78.9419627 C68.0241579,79.4755907 66.6703329,80.0981566 64.8060493,79.9869841 C63.9848768,79.9425151 63.1415104,79.5422942 62.298144,79.3421837 C61.7654915,79.2087767 61.5213591,79.4311217 61.4103899,79.9869841 C61.2106452,79.9869841 61.0552882,79.9869841 60.8777374,79.9869841 Z" id="Path"></path>
            <path d="M203.317883,79.9869841 C203.229107,79.9647496 203.140332,79.9202806 203.051557,79.8980461 C201.475793,79.5200597 200.432682,78.0970518 200.543651,76.4516989 C200.632427,74.8730495 201.897476,73.5834486 203.495434,73.4278071 C205.093391,73.2721656 206.558185,74.2504835 206.979868,75.8068984 C207.490327,77.6523618 206.380634,79.4978252 204.494157,79.8980461 C204.427575,79.9202806 204.360994,79.9425151 204.294412,79.9647496 C203.939311,79.9869841 203.628597,79.9869841 203.317883,79.9869841 Z M203.783954,74.094842 C202.407935,74.094842 201.320436,75.2732705 201.320436,76.7185129 C201.320436,78.1637553 202.430129,79.3199492 203.828341,79.3199492 C205.20436,79.3199492 206.269665,78.1637553 206.247471,76.6962784 C206.247471,75.2288015 205.159973,74.094842 203.783954,74.094842 Z" id="Shape"></path>
            <path d="M19.9966611,79.6979357 C19.9966611,79.5645287 19.9966611,79.4533562 19.9966611,79.3644182 C20.307375,79.3199492 20.5958951,79.2977147 20.8844152,79.2532457 C21.5280369,79.1198387 21.8387509,78.7863212 21.8831386,78.1192863 C21.9053324,77.9636448 21.8831386,77.8080033 21.8831386,77.6301273 C21.8831386,74.5172975 21.8831386,71.3822332 21.8831386,68.2694034 C21.8831386,67.0242715 21.4836492,66.6018161 20.2407935,66.5128781 C20.1742119,66.5128781 20.0854365,66.5128781 19.9966611,66.4906436 C19.9966611,66.3794711 19.9744672,66.2682986 19.9744672,66.1571261 C20.0410488,66.1348916 20.0854365,66.1348916 20.1298242,66.1348916 C22.3492095,66.1348916 24.5685947,66.1126571 26.78798,66.1571261 C28.141805,66.1793606 29.4734361,66.4461746 30.7162919,67.002037 C33.557105,68.3138724 34.6446038,70.6707293 34.4448591,73.5167451 C34.2007267,77.2521408 31.4930767,78.8307902 28.9851714,79.3866527 C28.1196111,79.5867632 27.231857,79.6757012 26.3662968,79.6757012 C24.3466562,79.7201702 22.3048218,79.6979357 20.2851812,79.6979357 C20.2185996,79.6979357 20.1076304,79.6979357 19.9966611,79.6979357 Z M24.1025238,72.8052411 C24.1025238,74.5172975 24.1025238,76.2293539 24.1025238,77.9191758 C24.1025238,78.4750382 24.3466562,78.7640867 24.8793087,78.8752592 C25.0790533,78.9197282 25.278798,78.9641972 25.4563488,78.9419627 C26.0777767,78.8974937 26.6770107,78.8974937 27.2762447,78.7863212 C29.4734361,78.3861002 31.0491996,77.2299063 31.7372091,75.0064565 C32.0035353,74.139311 32.047923,73.2499311 31.9813415,72.3383167 C31.8259845,70.3372118 31.0048119,68.7363279 29.2293037,67.713541 C27.8532849,66.913099 26.3219091,66.7574575 24.7683394,66.8908645 C24.2356869,66.9353335 24.1025238,67.135444 24.1025238,67.669072 C24.1025238,69.3811284 24.1025238,71.0931847 24.1025238,72.8052411 Z" id="Shape"></path>
            <path d="M40.8810763,79.6757012 C40.8810763,79.5422942 40.8810763,79.4533562 40.8810763,79.3644182 C40.925464,79.3421837 40.9698517,79.3421837 40.9920456,79.3199492 C41.1917902,79.2977147 41.4137288,79.2754802 41.6134734,79.2532457 C42.3902583,79.0976042 42.7675538,78.6751487 42.7675538,77.8747068 C42.7675538,74.539532 42.7675538,71.2043572 42.7675538,67.891417 C42.7675538,66.913099 42.3680644,66.5795816 41.1917902,66.5128781 C40.9476579,66.4906436 40.7923009,66.4684091 40.9032702,66.1571261 C44.7206128,66.1571261 48.5379554,66.1571261 52.3774919,66.1571261 C52.3774919,67.135444 52.3774919,68.0915274 52.3774919,69.0476109 C52.0445841,69.1587834 51.911421,69.0476109 51.8226456,68.7363279 C51.5785132,67.935886 51.2012177,67.224382 50.2912698,67.002037 C50.0249435,66.9353335 49.7364235,66.8908645 49.4479034,66.8908645 C48.3382107,66.86863 47.2285181,66.8908645 46.1410193,66.8908645 C45.9634685,66.8908645 45.7637239,66.913099 45.586173,66.957568 C45.2310714,67.046506 45.0091329,67.2910855 45.0091329,67.669072 C45.0091329,69.1587834 45.0091329,70.6484948 45.0091329,72.1604407 C45.1201021,72.1604407 45.2088775,72.1826752 45.297653,72.1826752 C46.3185702,72.1826752 47.3394874,72.1826752 48.3604046,72.1826752 C48.6489247,72.1826752 48.9596386,72.1604407 49.2481587,72.0937372 C50.1803005,71.8936267 50.6463714,71.3599987 50.7351468,70.4261498 C50.7351468,70.3594463 50.7573407,70.3149773 50.7573407,70.2260393 C50.8905038,70.2260393 51.0236669,70.2038048 51.1790239,70.2038048 C51.1790239,71.7824542 51.1790239,73.3166346 51.1790239,74.895284 C51.0458607,74.895284 50.9126976,74.895284 50.8683099,74.895284 C50.6685653,74.450594 50.557596,74.005904 50.3134636,73.6723866 C49.9361681,73.1387586 49.3369341,72.9608826 48.7155062,72.9608826 C47.4948443,72.9164136 46.2963763,72.9608826 45.0313267,72.9608826 C45.0313267,73.0942896 45.0091329,73.2054621 45.0091329,73.3166346 C45.0091329,74.895284 45.0091329,76.4516989 45.0091329,78.0303483 C45.0091329,78.8085557 45.1644898,78.9864317 45.9634685,78.9864317 C47.0509673,78.9864317 48.1384661,78.9864317 49.2481587,78.9864317 C51.001473,78.9864317 52.2665226,78.0970518 52.8657567,76.4516989 C52.8879505,76.3849954 52.9101444,76.3405264 52.9323382,76.2738229 C53.1320829,76.2738229 53.3318276,76.2738229 53.5315722,76.2738229 C53.5093784,76.3627609 53.5093784,76.4072299 53.5093784,76.4739334 C53.1986644,77.5411893 52.9101444,78.6306797 52.5994304,79.6979357 C48.6933124,79.6757012 44.8093882,79.6757012 40.8810763,79.6757012 Z" id="Path"></path>
            <path d="M154.668958,72.8719446 C154.646764,73.0498206 154.646764,73.1387586 154.646764,73.2276966 C154.646764,74.8285805 154.646764,76.4516989 154.646764,78.0525828 C154.646764,78.7418522 154.824315,78.9419627 155.512324,78.9419627 C156.666405,78.9419627 157.820485,78.9641972 158.974565,78.9419627 C160.594717,78.9197282 161.904154,78.0081138 162.481194,76.4961679 C162.503388,76.4072299 162.547776,76.3405264 162.56997,76.2515884 C162.769714,76.2515884 162.947265,76.2515884 163.191397,76.2515884 C162.85849,77.4077823 162.547776,78.5417417 162.237062,79.6757012 C158.353138,79.6757012 154.44702,79.6757012 150.540902,79.6757012 C150.540902,79.5867632 150.518708,79.4755907 150.518708,79.3644182 C150.585289,79.3421837 150.607483,79.3199492 150.629677,79.3199492 C150.940391,79.2754802 151.273299,79.2532457 151.561819,79.1643077 C152.138859,78.9864317 152.405185,78.5862107 152.405185,77.9636448 C152.405185,76.9408578 152.405185,75.8958364 152.405185,74.8730495 C152.405185,72.6273651 152.405185,70.3816808 152.405185,68.1359964 C152.405185,66.957568 152.094471,66.6018161 150.896003,66.5128781 C150.785034,66.5128781 150.651871,66.4906436 150.518708,66.4906436 C150.452126,66.2682986 150.429932,66.1348916 150.740646,66.1348916 C154.469213,66.1348916 158.175587,66.1348916 161.904154,66.1348916 C161.926348,66.1348916 161.948542,66.1571261 161.992929,66.1571261 C161.992929,67.1132095 161.992929,68.0692929 161.992929,69.0476109 C161.682215,69.1587834 161.526858,69.0476109 161.438083,68.7363279 C161.171757,67.935886 160.794461,67.2021475 159.884513,66.9798025 C159.618187,66.913099 159.329667,66.86863 159.041147,66.86863 C157.953648,66.8463955 156.866149,66.86863 155.756457,66.86863 C154.890897,66.86863 154.62457,67.1576785 154.62457,68.024824 C154.62457,69.2699559 154.62457,70.5150878 154.62457,71.7379852 C154.62457,71.8713922 154.62457,72.0047992 154.62457,72.1604407 C155.112835,72.1604407 155.534518,72.1604407 155.978395,72.1604407 C156.710792,72.1604407 157.44319,72.1826752 158.197781,72.1604407 C159.595993,72.1159717 160.173033,71.5823437 160.372778,70.2038048 C160.505941,70.2038048 160.639104,70.2038048 160.794461,70.2038048 C160.794461,71.7602197 160.794461,73.3166346 160.794461,74.8730495 C160.639104,74.8730495 160.505941,74.8730495 160.372778,74.8730495 C160.350584,74.6951735 160.32839,74.5172975 160.306197,74.361656 C160.106452,73.5389796 159.529412,73.0720551 158.752627,73.0053516 C157.398802,72.8941791 156.044977,72.9164136 154.668958,72.8719446 Z" id="Path"></path>
            <path d="M131.875872,66.4906436 C131.875872,66.3794711 131.875872,66.2905331 131.875872,66.1571261 C133.873318,66.1571261 135.870765,66.1571261 137.868212,66.1571261 C137.868212,66.2682986 137.890406,66.3572366 137.890406,66.4461746 C137.846018,66.4684091 137.823824,66.4906436 137.779436,66.4906436 C137.557498,66.5128781 137.335559,66.5351126 137.113621,66.5795816 C136.35903,66.735223 135.981734,67.135444 135.981734,67.891417 C135.95954,71.2265917 135.981734,74.584001 135.981734,77.9191758 C135.981734,78.2304588 136.114897,78.4528037 136.403417,78.5417417 C136.691938,78.6529142 137.002651,78.7418522 137.335559,78.7863212 C138.66719,78.9197282 139.976628,78.8752592 141.286065,78.6306797 C142.551115,78.4083347 143.283512,77.5634238 143.838358,76.4961679 C144.038103,76.1181814 144.038103,76.1181814 144.548561,76.1626504 C144.215654,77.3410788 143.882746,78.5195072 143.549838,79.6757012 C139.665914,79.6757012 135.78199,79.6757012 131.898065,79.6757012 C131.898065,79.5645287 131.875872,79.4533562 131.875872,79.3644182 C131.942453,79.3421837 131.964647,79.3199492 132.009035,79.3199492 C132.319749,79.2754802 132.652656,79.2532457 132.941176,79.1643077 C133.473829,78.9864317 133.762349,78.6084452 133.784543,78.0303483 C133.784543,77.6968308 133.784543,77.3410788 133.784543,77.0075613 C133.784543,74.0726075 133.762349,71.1376537 133.806737,68.2026999 C133.828931,66.86863 133.163115,66.6240505 132.253167,66.5128781 C132.120004,66.4906436 132.009035,66.4906436 131.875872,66.4906436 Z" id="Path"></path>
            <path d="M77.190219,66.4461746 C77.190219,66.3350021 77.190219,66.2460641 77.190219,66.1348916 C79.3430227,66.1348916 81.4736325,66.1348916 83.6264362,66.1348916 C83.6264362,66.2460641 83.6264362,66.3572366 83.6264362,66.4461746 C83.5820485,66.4684091 83.5598547,66.4684091 83.515467,66.4684091 C83.1159776,66.5351126 82.7164883,66.5573471 82.3391928,66.690754 C81.8065403,66.8463955 81.5180202,67.268851 81.5180202,67.8247135 C81.5180202,71.1821227 81.5180202,74.5617665 81.5180202,77.9191758 C81.5180202,78.5417417 81.8287342,78.9641972 82.450162,79.1420732 C82.8274575,79.2532457 83.204753,79.2754802 83.6264362,79.3644182 C83.6264362,79.4533562 83.6264362,79.5422942 83.6264362,79.6757012 C81.4736325,79.6757012 79.3430227,79.6757012 77.190219,79.6757012 C77.190219,79.5645287 77.190219,79.4533562 77.190219,79.3644182 C77.5675145,79.2977147 77.9226161,79.2754802 78.2777178,79.1865422 C78.987921,78.9864317 79.298635,78.5862107 79.298635,77.8524723 C79.298635,74.539532 79.298635,71.2488262 79.298635,67.935886 C79.298635,67.2021475 79.0101149,66.824161 78.2999116,66.646285 C77.94481,66.5573471 77.5897083,66.5128781 77.190219,66.4461746 Z" id="Path"></path>
            <path d="M202.585486,75.0509255 C203.162526,75.0509255 203.717372,75.028691 204.250025,75.0509255 C204.649514,75.07316 204.982422,75.251036 205.137779,75.6512569 C205.293136,76.0959469 205.137779,76.4294644 204.560738,76.7629819 C205.182166,77.1187338 205.071197,77.7857688 205.315329,78.3416312 C205.182166,78.3638657 205.093391,78.3638657 205.004616,78.3638657 C204.62732,78.4305692 204.427575,78.2971622 204.383188,77.8969413 C204.383188,77.8302378 204.360994,77.7857688 204.3388,77.7190653 C204.205637,77.1187338 204.072474,77.0520303 203.317883,77.0964993 C203.317883,77.4967203 203.317883,77.8969413 203.317883,78.3193967 C203.051557,78.3193967 202.829618,78.3193967 202.585486,78.3193967 C202.585486,77.2966098 202.585486,76.2293539 202.585486,75.0509255 Z M203.317883,76.5628714 C203.717372,76.5406369 204.116861,76.6518094 204.3388,76.2738229 C204.405382,76.1626504 204.383188,75.8958364 204.294412,75.8068984 C204.028086,75.5178499 203.695178,75.5623189 203.340077,75.6512569 C203.317883,75.9403054 203.317883,76.2071194 203.317883,76.5628714 Z" id="Shape"></path>
            <path d="M187.848768,79.9425151 C187.671217,78.6751487 187.471472,77.3855478 187.293921,76.1181814 C187.271727,75.9403054 187.249534,75.7624294 187.22734,75.5845534 C187.560247,75.4511464 187.715604,75.5623189 187.826574,75.8513674 C188.137288,76.6740439 188.581165,77.4522513 189.24698,78.0525828 C190.245704,78.9864317 191.421978,79.3644182 192.775803,79.1198387 C194.595699,78.7863212 195.328096,76.9853268 194.284985,75.4511464 C193.863302,74.8285805 193.286261,74.406125 192.664834,74.050373 C191.910243,73.6279176 191.133458,73.2276966 190.378867,72.7607721 C189.868408,72.4494891 189.35795,72.0937372 188.914072,71.6712817 C187.870961,70.6929638 187.604635,69.4700664 188.026318,68.1359964 C188.448002,66.8019265 189.468919,66.0904226 190.80055,65.8458431 C191.732692,65.6679671 192.664834,65.7791396 193.552588,66.0904226 C193.929883,66.2238296 194.307179,66.3350021 194.684474,66.4239401 C195.017382,66.5128781 195.283708,66.3794711 195.416871,66.0681881 C195.527841,65.7791396 195.705391,65.7124361 196.016105,65.8013741 C196.104881,66.5128781 196.171462,67.224382 196.260238,67.935886 C196.349013,68.6473899 196.415595,69.3811284 196.482176,70.1148668 C196.127075,70.2260393 195.949524,70.1593358 195.816361,69.7813493 C195.527841,68.9142039 195.106157,68.1359964 194.418148,67.5134305 C193.530394,66.690754 192.487283,66.3572366 191.288815,66.5795816 C189.757439,66.8908645 189.180399,68.5806864 190.245704,69.7368803 C190.667387,70.1815703 191.200039,70.5373223 191.732692,70.8708398 C192.620446,71.4267022 193.530394,71.9158612 194.418148,72.4939581 C194.972994,72.8497101 195.505647,73.2499311 195.993911,73.7168556 C197.636257,75.2732705 197.059216,77.8080033 195.661004,78.8974937 C194.995188,79.4311217 193.641363,80.0536876 191.777079,79.9425151 C190.955907,79.8980461 190.112541,79.4978252 189.269174,79.2977147 C188.736522,79.1643077 188.492389,79.3866527 188.38142,79.9425151 C188.203869,79.9425151 188.026318,79.9425151 187.848768,79.9425151 Z" id="Path"></path>
            <path d="M170.470981,79.9425151 C170.29343,78.6751487 170.093686,77.3855478 169.916135,76.1181814 C169.893941,75.9403054 169.871747,75.7624294 169.849553,75.5845534 C170.182461,75.4511464 170.337818,75.5623189 170.448787,75.8513674 C170.759501,76.6740439 171.203378,77.4522513 171.869194,78.0525828 C172.867917,78.9864317 174.044191,79.3644182 175.398016,79.1198387 C177.217912,78.7863212 177.950309,76.9853268 176.907198,75.4511464 C176.485515,74.8285805 175.908475,74.406125 175.287047,74.050373 C174.532456,73.6279176 173.755671,73.2276966 173.00108,72.7607721 C172.490622,72.4494891 171.980163,72.0937372 171.536286,71.6712817 C170.493175,70.6929638 170.226849,69.4700664 170.648532,68.1359964 C171.070215,66.8019265 172.091132,66.0904226 173.422763,65.8458431 C174.354905,65.6679671 175.287047,65.7791396 176.174801,66.0904226 C176.552097,66.2238296 176.929392,66.3350021 177.306688,66.4239401 C177.639595,66.5128781 177.905922,66.3794711 178.039085,66.0681881 C178.150054,65.7791396 178.327605,65.7124361 178.638319,65.8013741 C178.727094,66.5128781 178.793676,67.224382 178.882451,67.935886 C178.971227,68.6473899 179.037808,69.3811284 179.10439,70.1148668 C178.749288,70.2260393 178.571737,70.1593358 178.438574,69.7813493 C178.150054,68.9142039 177.728371,68.1359964 177.040361,67.5134305 C176.152607,66.690754 175.109496,66.3572366 173.911028,66.5795816 C172.379652,66.8908645 171.802612,68.5806864 172.867917,69.7368803 C173.2896,70.1815703 173.822253,70.5373223 174.354905,70.8708398 C175.242659,71.4267022 176.152607,71.9158612 177.040361,72.4939581 C177.595208,72.8497101 178.12786,73.2499311 178.616125,73.7168556 C180.25847,75.2732705 179.68143,77.8080033 178.283217,78.8974937 C177.617402,79.4311217 176.263577,80.0536876 174.399293,79.9425151 C173.57812,79.8980461 172.734754,79.4978252 171.891388,79.2977147 C171.358735,79.1643077 171.114603,79.3866527 171.003634,79.9425151 C170.826083,79.9425151 170.648532,79.9425151 170.470981,79.9425151 Z" id="Path"></path>
        </g>
    </g>
</svg>